<svg data-v-423bf9ae="" xmlns="http://www.w3.org/2000/svg" viewBox="0 0 708 90" class="iconLeftSlogan"><!----><!----><!----><g data-v-423bf9ae="" id="2a1a3c74-e5a7-46dd-94ca-d93c54f5196a" fill="#FFFFFF" transform="matrix(4.597701082226675,0,0,4.597701082226675,103.24162620473237,-11.632183844910784)"><path d="M8.60 9.96L8.60 9.96L8.60 9.96Q8.60 11.25 7.66 11.96L7.66 11.96L7.66 11.96Q6.73 12.67 5.06 12.67L5.06 12.67L1.15 12.67L1.15 3.04L4.65 3.04L4.65 3.04Q8.04 3.04 8.04 5.38L8.04 5.38L8.04 5.38Q8.04 6.23 7.56 6.82L7.56 6.82L7.56 6.82Q7.08 7.40 6.21 7.59L6.21 7.59L6.21 7.59Q7.36 7.73 7.98 8.36L7.98 8.36L7.98 8.36Q8.60 9.00 8.60 9.96ZM6.73 5.54L6.73 5.54L6.73 5.54Q6.73 4.76 6.19 4.42L6.19 4.42L6.19 4.42Q5.66 4.09 4.65 4.09L4.65 4.09L2.45 4.09L2.45 7.14L4.65 7.14L4.65 7.14Q5.69 7.14 6.21 6.74L6.21 6.74L6.21 6.74Q6.73 6.35 6.73 5.54ZM7.28 9.86L7.28 9.86L7.28 9.86Q7.28 8.16 4.89 8.16L4.89 8.16L2.45 8.16L2.45 11.63L4.99 11.63L4.99 11.63Q6.19 11.63 6.73 11.18L6.73 11.18L6.73 11.18Q7.28 10.74 7.28 9.86ZM11.50 3.71L10.27 3.71L10.27 2.53L11.50 2.53L11.50 3.71ZM11.50 12.67L10.27 12.67L10.27 5.28L11.50 5.28L11.50 12.67ZM19.33 12.67L18.09 12.67L18.09 7.98L18.09 7.98Q18.09 7.25 17.94 6.85L17.94 6.85L17.94 6.85Q17.80 6.45 17.49 6.27L17.49 6.27L17.49 6.27Q17.17 6.09 16.56 6.09L16.56 6.09L16.56 6.09Q15.67 6.09 15.16 6.70L15.16 6.70L15.16 6.70Q14.65 7.31 14.65 8.39L14.65 8.39L14.65 12.67L13.42 12.67L13.42 6.86L13.42 6.86Q13.42 5.56 13.38 5.28L13.38 5.28L14.54 5.28L14.54 5.28Q14.55 5.31 14.55 5.46L14.55 5.46L14.55 5.46Q14.56 5.61 14.57 5.81L14.57 5.81L14.57 5.81Q14.58 6.00 14.59 6.54L14.59 6.54L14.62 6.54L14.62 6.54Q15.04 5.78 15.60 5.46L15.60 5.46L15.60 5.46Q16.15 5.14 16.98 5.14L16.98 5.14L16.98 5.14Q18.20 5.14 18.76 5.75L18.76 5.75L18.76 5.75Q19.33 6.35 19.33 7.75L19.33 7.75L19.33 12.67ZM23.06 12.81L23.06 12.81L23.06 12.81Q21.95 12.81 21.39 12.22L21.39 12.22L21.39 12.22Q20.83 11.63 20.83 10.61L20.83 10.61L20.83 10.61Q20.83 9.46 21.58 8.85L21.58 8.85L21.58 8.85Q22.34 8.23 24.02 8.19L24.02 8.19L25.68 8.16L25.68 7.76L25.68 7.76Q25.68 6.86 25.30 6.47L25.30 6.47L25.30 6.47Q24.92 6.08 24.10 6.08L24.10 6.08L24.10 6.08Q23.27 6.08 22.89 6.36L22.89 6.36L22.89 6.36Q22.52 6.64 22.44 7.25L22.44 7.25L21.16 7.14L21.16 7.14Q21.47 5.14 24.12 5.14L24.12 5.14L24.12 5.14Q25.52 5.14 26.22 5.78L26.22 5.78L26.22 5.78Q26.93 6.42 26.93 7.63L26.93 7.63L26.93 10.81L26.93 10.81Q26.93 11.36 27.07 11.64L27.07 11.64L27.07 11.64Q27.21 11.92 27.62 11.92L27.62 11.92L27.62 11.92Q27.79 11.92 28.02 11.87L28.02 11.87L28.02 12.63L28.02 12.63Q27.56 12.74 27.07 12.74L27.07 12.74L27.07 12.74Q26.39 12.74 26.08 12.38L26.08 12.38L26.08 12.38Q25.76 12.02 25.72 11.26L25.72 11.26L25.68 11.26L25.68 11.26Q25.21 12.11 24.59 12.46L24.59 12.46L24.59 12.46Q23.96 12.81 23.06 12.81ZM23.34 11.89L23.34 11.89L23.34 11.89Q24.02 11.89 24.55 11.58L24.55 11.58L24.55 11.58Q25.07 11.27 25.38 10.74L25.38 10.74L25.38 10.74Q25.68 10.20 25.68 9.63L25.68 9.63L25.68 9.02L24.34 9.05L24.34 9.05Q23.47 9.06 23.02 9.23L23.02 9.23L23.02 9.23Q22.57 9.39 22.33 9.73L22.33 9.73L22.33 9.73Q22.09 10.08 22.09 10.63L22.09 10.63L22.09 10.63Q22.09 11.23 22.42 11.56L22.42 11.56L22.42 11.56Q22.74 11.89 23.34 11.89ZM34.90 12.67L33.66 12.67L33.66 7.98L33.66 7.98Q33.66 7.25 33.52 6.85L33.52 6.85L33.52 6.85Q33.37 6.45 33.06 6.27L33.06 6.27L33.06 6.27Q32.74 6.09 32.14 6.09L32.14 6.09L32.14 6.09Q31.25 6.09 30.73 6.70L30.73 6.70L30.73 6.70Q30.22 7.31 30.22 8.39L30.22 8.39L30.22 12.67L28.99 12.67L28.99 6.86L28.99 6.86Q28.99 5.56 28.95 5.28L28.95 5.28L30.11 5.28L30.11 5.28Q30.12 5.31 30.13 5.46L30.13 5.46L30.13 5.46Q30.13 5.61 30.14 5.81L30.14 5.81L30.14 5.81Q30.15 6.00 30.17 6.54L30.17 6.54L30.19 6.54L30.19 6.54Q30.61 5.78 31.17 5.46L31.17 5.46L31.17 5.46Q31.73 5.14 32.55 5.14L32.55 5.14L32.55 5.14Q33.77 5.14 34.33 5.75L34.33 5.75L34.33 5.75Q34.90 6.35 34.90 7.75L34.90 7.75L34.90 12.67ZM37.69 8.94L37.69 8.94L37.69 8.94Q37.69 10.42 38.15 11.13L38.15 11.13L38.15 11.13Q38.62 11.84 39.55 11.84L39.55 11.84L39.55 11.84Q40.21 11.84 40.65 11.48L40.65 11.48L40.65 11.48Q41.09 11.13 41.19 10.39L41.19 10.39L42.44 10.47L42.44 10.47Q42.29 11.54 41.53 12.17L41.53 12.17L41.53 12.17Q40.76 12.81 39.59 12.81L39.59 12.81L39.59 12.81Q38.04 12.81 37.22 11.83L37.22 11.83L37.22 11.83Q36.40 10.85 36.40 8.97L36.40 8.97L36.40 8.97Q36.40 7.10 37.22 6.12L37.22 6.12L37.22 6.12Q38.04 5.14 39.57 5.14L39.57 5.14L39.57 5.14Q40.71 5.14 41.46 5.73L41.46 5.73L41.46 5.73Q42.21 6.32 42.40 7.35L42.40 7.35L41.13 7.44L41.13 7.44Q41.04 6.83 40.65 6.47L40.65 6.47L40.65 6.47Q40.26 6.10 39.54 6.10L39.54 6.10L39.54 6.10Q38.56 6.10 38.12 6.75L38.12 6.75L38.12 6.75Q37.69 7.40 37.69 8.94ZM49.97 9.24L44.69 9.24L44.69 9.24Q44.69 10.51 45.22 11.20L45.22 11.20L45.22 11.20Q45.75 11.89 46.76 11.89L46.76 11.89L46.76 11.89Q47.56 11.89 48.04 11.57L48.04 11.57L48.04 11.57Q48.52 11.25 48.69 10.75L48.69 10.75L49.77 11.06L49.77 11.06Q49.11 12.81 46.76 12.81L46.76 12.81L46.76 12.81Q45.12 12.81 44.26 11.83L44.26 11.83L44.26 11.83Q43.40 10.86 43.40 8.93L43.40 8.93L43.40 8.93Q43.40 7.10 44.26 6.12L44.26 6.12L44.26 6.12Q45.12 5.14 46.71 5.14L46.71 5.14L46.71 5.14Q49.97 5.14 49.97 9.07L49.97 9.07L49.97 9.24ZM44.71 8.29L48.70 8.29L48.70 8.29Q48.60 7.12 48.10 6.59L48.10 6.59L48.10 6.59Q47.61 6.05 46.69 6.05L46.69 6.05L46.69 6.05Q45.79 6.05 45.27 6.65L45.27 6.65L45.27 6.65Q44.75 7.25 44.71 8.29L44.71 8.29ZM57.06 12.67L55.84 12.67L55.84 7.98L55.84 7.98Q55.84 6.91 55.55 6.50L55.55 6.50L55.55 6.50Q55.25 6.09 54.49 6.09L54.49 6.09L54.49 6.09Q53.70 6.09 53.25 6.69L53.25 6.69L53.25 6.69Q52.79 7.29 52.79 8.39L52.79 8.39L52.79 12.67L51.56 12.67L51.56 6.86L51.56 6.86Q51.56 5.56 51.52 5.28L51.52 5.28L52.68 5.28L52.68 5.28Q52.69 5.31 52.70 5.46L52.70 5.46L52.70 5.46Q52.71 5.61 52.72 5.81L52.72 5.81L52.72 5.81Q52.73 6.00 52.74 6.54L52.74 6.54L52.76 6.54L52.76 6.54Q53.16 5.76 53.67 5.45L53.67 5.45L53.67 5.45Q54.18 5.14 54.92 5.14L54.92 5.14L54.92 5.14Q55.76 5.14 56.25 5.48L56.25 5.48L56.25 5.48Q56.74 5.81 56.93 6.54L56.93 6.54L56.95 6.54L56.95 6.54Q57.33 5.80 57.88 5.47L57.88 5.47L57.88 5.47Q58.42 5.14 59.19 5.14L59.19 5.14L59.19 5.14Q60.31 5.14 60.82 5.75L60.82 5.75L60.82 5.75Q61.33 6.36 61.33 7.75L61.33 7.75L61.33 12.67L60.12 12.67L60.12 7.98L60.12 7.98Q60.12 6.91 59.82 6.50L59.82 6.50L59.82 6.50Q59.53 6.09 58.76 6.09L58.76 6.09L58.76 6.09Q57.96 6.09 57.51 6.69L57.51 6.69L57.51 6.69Q57.06 7.29 57.06 8.39L57.06 8.39L57.06 12.67ZM69.42 9.24L64.14 9.24L64.14 9.24Q64.14 10.51 64.67 11.20L64.67 11.20L64.67 11.20Q65.19 11.89 66.21 11.89L66.21 11.89L66.21 11.89Q67.01 11.89 67.49 11.57L67.49 11.57L67.49 11.57Q67.97 11.25 68.14 10.75L68.14 10.75L69.22 11.06L69.22 11.06Q68.56 12.81 66.21 12.81L66.21 12.81L66.21 12.81Q64.57 12.81 63.71 11.83L63.71 11.83L63.71 11.83Q62.85 10.86 62.85 8.93L62.85 8.93L62.85 8.93Q62.85 7.10 63.71 6.12L63.71 6.12L63.71 6.12Q64.57 5.14 66.16 5.14L66.16 5.14L66.16 5.14Q69.42 5.14 69.42 9.07L69.42 9.07L69.42 9.24ZM64.16 8.29L68.15 8.29L68.15 8.29Q68.04 7.12 67.55 6.59L67.55 6.59L67.55 6.59Q67.06 6.05 66.14 6.05L66.14 6.05L66.14 6.05Q65.24 6.05 64.72 6.65L64.72 6.65L64.72 6.65Q64.20 7.25 64.16 8.29L64.16 8.29ZM72.24 12.67L71.01 12.67L71.01 7L71.01 7Q71.01 6.22 70.97 5.28L70.97 5.28L72.13 5.28L72.13 5.28Q72.19 6.54 72.19 6.79L72.19 6.79L72.21 6.79L72.21 6.79Q72.51 5.84 72.89 5.49L72.89 5.49L72.89 5.49Q73.27 5.14 73.97 5.14L73.97 5.14L73.97 5.14Q74.22 5.14 74.47 5.21L74.47 5.21L74.47 6.34L74.47 6.34Q74.22 6.27 73.81 6.27L73.81 6.27L73.81 6.27Q73.05 6.27 72.65 6.93L72.65 6.93L72.65 6.93Q72.24 7.59 72.24 8.82L72.24 8.82L72.24 12.67ZM76.58 8.94L76.58 8.94L76.58 8.94Q76.58 10.42 77.05 11.13L77.05 11.13L77.05 11.13Q77.51 11.84 78.45 11.84L78.45 11.84L78.45 11.84Q79.11 11.84 79.55 11.48L79.55 11.48L79.55 11.48Q79.99 11.13 80.09 10.39L80.09 10.39L81.33 10.47L81.33 10.47Q81.19 11.54 80.42 12.17L80.42 12.17L80.42 12.17Q79.66 12.81 78.48 12.81L78.48 12.81L78.48 12.81Q76.93 12.81 76.11 11.83L76.11 11.83L76.11 11.83Q75.30 10.85 75.30 8.97L75.30 8.97L75.30 8.97Q75.30 7.10 76.12 6.12L76.12 6.12L76.12 6.12Q76.94 5.14 78.47 5.14L78.47 5.14L78.47 5.14Q79.60 5.14 80.35 5.73L80.35 5.73L80.35 5.73Q81.10 6.32 81.29 7.35L81.29 7.35L80.03 7.44L80.03 7.44Q79.93 6.83 79.54 6.47L79.54 6.47L79.54 6.47Q79.15 6.10 78.44 6.10L78.44 6.10L78.44 6.10Q77.46 6.10 77.02 6.75L77.02 6.75L77.02 6.75Q76.58 7.40 76.58 8.94ZM83.85 6.54L83.87 6.54L83.87 6.54Q84.27 5.82 84.82 5.48L84.82 5.48L84.82 5.48Q85.38 5.14 86.24 5.14L86.24 5.14L86.24 5.14Q87.44 5.14 88.01 5.74L88.01 5.74L88.01 5.74Q88.58 6.34 88.58 7.75L88.58 7.75L88.58 12.67L87.34 12.67L87.34 7.98L87.34 7.98Q87.34 7.21 87.20 6.83L87.20 6.83L87.20 6.83Q87.06 6.45 86.73 6.27L86.73 6.27L86.73 6.27Q86.40 6.09 85.82 6.09L85.82 6.09L85.82 6.09Q84.95 6.09 84.43 6.69L84.43 6.69L84.43 6.69Q83.90 7.29 83.90 8.31L83.90 8.31L83.90 12.67L82.67 12.67L82.67 2.53L83.90 2.53L83.90 5.17L83.90 5.17Q83.90 5.58 83.88 6.03L83.88 6.03L83.88 6.03Q83.86 6.47 83.85 6.54L83.85 6.54ZM92.32 12.81L92.32 12.81L92.32 12.81Q91.21 12.81 90.64 12.22L90.64 12.22L90.64 12.22Q90.08 11.63 90.08 10.61L90.08 10.61L90.08 10.61Q90.08 9.46 90.84 8.85L90.84 8.85L90.84 8.85Q91.59 8.23 93.28 8.19L93.28 8.19L94.94 8.16L94.94 7.76L94.94 7.76Q94.94 6.86 94.55 6.47L94.55 6.47L94.55 6.47Q94.17 6.08 93.35 6.08L93.35 6.08L93.35 6.08Q92.52 6.08 92.15 6.36L92.15 6.36L92.15 6.36Q91.77 6.64 91.70 7.25L91.70 7.25L90.41 7.14L90.41 7.14Q90.73 5.14 93.38 5.14L93.38 5.14L93.38 5.14Q94.77 5.14 95.48 5.78L95.48 5.78L95.48 5.78Q96.18 6.42 96.18 7.63L96.18 7.63L96.18 10.81L96.18 10.81Q96.18 11.36 96.33 11.64L96.33 11.64L96.33 11.64Q96.47 11.92 96.87 11.92L96.87 11.92L96.87 11.92Q97.05 11.92 97.28 11.87L97.28 11.87L97.28 12.63L97.28 12.63Q96.81 12.74 96.33 12.74L96.33 12.74L96.33 12.74Q95.64 12.74 95.33 12.38L95.33 12.38L95.33 12.38Q95.02 12.02 94.98 11.26L94.98 11.26L94.94 11.26L94.94 11.26Q94.47 12.11 93.84 12.46L93.84 12.46L93.84 12.46Q93.21 12.81 92.32 12.81ZM92.60 11.89L92.60 11.89L92.60 11.89Q93.28 11.89 93.80 11.58L93.80 11.58L93.80 11.58Q94.33 11.27 94.63 10.74L94.63 10.74L94.63 10.74Q94.94 10.20 94.94 9.63L94.94 9.63L94.94 9.02L93.59 9.05L93.59 9.05Q92.72 9.06 92.27 9.23L92.27 9.23L92.27 9.23Q91.83 9.39 91.59 9.73L91.59 9.73L91.59 9.73Q91.35 10.08 91.35 10.63L91.35 10.63L91.35 10.63Q91.35 11.23 91.67 11.56L91.67 11.56L91.67 11.56Q92.00 11.89 92.60 11.89ZM104.15 12.67L102.92 12.67L102.92 7.98L102.92 7.98Q102.92 7.25 102.77 6.85L102.77 6.85L102.77 6.85Q102.63 6.45 102.31 6.27L102.31 6.27L102.31 6.27Q102.00 6.09 101.39 6.09L101.39 6.09L101.39 6.09Q100.50 6.09 99.99 6.70L99.99 6.70L99.99 6.70Q99.48 7.31 99.48 8.39L99.48 8.39L99.48 12.67L98.25 12.67L98.25 6.86L98.25 6.86Q98.25 5.56 98.21 5.28L98.21 5.28L99.37 5.28L99.37 5.28Q99.37 5.31 99.38 5.46L99.38 5.46L99.38 5.46Q99.39 5.61 99.40 5.81L99.40 5.81L99.40 5.81Q99.41 6.00 99.42 6.54L99.42 6.54L99.44 6.54L99.44 6.54Q99.87 5.78 100.42 5.46L100.42 5.46L100.42 5.46Q100.98 5.14 101.81 5.14L101.81 5.14L101.81 5.14Q103.02 5.14 103.59 5.75L103.59 5.75L103.59 5.75Q104.15 6.35 104.15 7.75L104.15 7.75L104.15 12.67ZM108.85 11.71L108.85 12.62L108.85 12.62Q108.24 12.78 107.60 12.78L107.60 12.78L107.60 12.78Q106.13 12.78 106.13 11.11L106.13 11.11L106.13 6.17L105.27 6.17L105.27 5.28L106.18 5.28L106.54 3.62L107.36 3.62L107.36 5.28L108.73 5.28L108.73 6.17L107.36 6.17L107.36 10.84L107.36 10.84Q107.36 11.38 107.53 11.59L107.53 11.59L107.53 11.59Q107.71 11.81 108.14 11.81L108.14 11.81L108.14 11.81Q108.38 11.81 108.85 11.71L108.85 11.71ZM116.15 8.94L116.15 8.94L116.15 8.94Q116.15 12.81 113.43 12.81L113.43 12.81L113.43 12.81Q111.72 12.81 111.13 11.53L111.13 11.53L111.10 11.53L111.10 11.53Q111.13 11.58 111.13 12.69L111.13 12.69L111.13 15.58L109.89 15.58L109.89 6.79L109.89 6.79Q109.89 5.65 109.85 5.28L109.85 5.28L111.04 5.28L111.04 5.28Q111.05 5.30 111.06 5.47L111.06 5.47L111.06 5.47Q111.08 5.64 111.09 5.99L111.09 5.99L111.09 5.99Q111.11 6.34 111.11 6.47L111.11 6.47L111.14 6.47L111.14 6.47Q111.47 5.78 112.01 5.47L112.01 5.47L112.01 5.47Q112.55 5.15 113.43 5.15L113.43 5.15L113.43 5.15Q114.80 5.15 115.47 6.06L115.47 6.06L115.47 6.06Q116.15 6.98 116.15 8.94ZM114.86 8.97L114.86 8.97L114.86 8.97Q114.86 7.42 114.44 6.76L114.44 6.76L114.44 6.76Q114.02 6.10 113.11 6.10L113.11 6.10L113.11 6.10Q112.38 6.10 111.97 6.41L111.97 6.41L111.97 6.41Q111.56 6.71 111.34 7.37L111.34 7.37L111.34 7.37Q111.13 8.02 111.13 9.06L111.13 9.06L111.13 9.06Q111.13 10.52 111.59 11.21L111.59 11.21L111.59 11.21Q112.05 11.90 113.10 11.90L113.10 11.90L113.10 11.90Q114.02 11.90 114.44 11.23L114.44 11.23L114.44 11.23Q114.86 10.55 114.86 8.97ZM119.57 12.81L119.57 12.81L119.57 12.81Q118.45 12.81 117.89 12.22L117.89 12.22L117.89 12.22Q117.33 11.63 117.33 10.61L117.33 10.61L117.33 10.61Q117.33 9.46 118.09 8.85L118.09 8.85L118.09 8.85Q118.84 8.23 120.52 8.19L120.52 8.19L122.19 8.16L122.19 7.76L122.19 7.76Q122.19 6.86 121.80 6.47L121.80 6.47L121.80 6.47Q121.42 6.08 120.60 6.08L120.60 6.08L120.60 6.08Q119.77 6.08 119.40 6.36L119.40 6.36L119.40 6.36Q119.02 6.64 118.95 7.25L118.95 7.25L117.66 7.14L117.66 7.14Q117.97 5.14 120.63 5.14L120.63 5.14L120.63 5.14Q122.02 5.14 122.73 5.78L122.73 5.78L122.73 5.78Q123.43 6.42 123.43 7.63L123.43 7.63L123.43 10.81L123.43 10.81Q123.43 11.36 123.57 11.64L123.57 11.64L123.57 11.64Q123.72 11.92 124.12 11.92L124.12 11.92L124.12 11.92Q124.30 11.92 124.52 11.87L124.52 11.87L124.52 12.63L124.52 12.63Q124.06 12.74 123.57 12.74L123.57 12.74L123.57 12.74Q122.89 12.74 122.58 12.38L122.58 12.38L122.58 12.38Q122.27 12.02 122.23 11.26L122.23 11.26L122.19 11.26L122.19 11.26Q121.71 12.11 121.09 12.46L121.09 12.46L121.09 12.46Q120.46 12.81 119.57 12.81ZM119.85 11.89L119.85 11.89L119.85 11.89Q120.52 11.89 121.05 11.58L121.05 11.58L121.05 11.58Q121.58 11.27 121.88 10.74L121.88 10.74L121.88 10.74Q122.19 10.20 122.19 9.63L122.19 9.63L122.19 9.02L120.84 9.05L120.84 9.05Q119.97 9.06 119.52 9.23L119.52 9.23L119.52 9.23Q119.08 9.39 118.84 9.73L118.84 9.73L118.84 9.73Q118.60 10.08 118.60 10.63L118.60 10.63L118.60 10.63Q118.60 11.23 118.92 11.56L118.92 11.56L118.92 11.56Q119.25 11.89 119.85 11.89ZM125.83 15.58L125.83 15.58L125.83 15.58Q125.32 15.58 124.98 15.50L124.98 15.50L124.98 14.58L124.98 14.58Q125.24 14.62 125.56 14.62L125.56 14.62L125.56 14.62Q126.70 14.62 127.37 12.93L127.37 12.93L127.49 12.64L124.56 5.28L125.87 5.28L127.43 9.37L127.43 9.37Q127.46 9.46 127.51 9.59L127.51 9.59L127.51 9.59Q127.56 9.73 127.82 10.49L127.82 10.49L127.82 10.49Q128.08 11.25 128.10 11.33L128.10 11.33L128.58 9.99L130.20 5.28L131.50 5.28L128.65 12.67L128.65 12.67Q128.19 13.86 127.80 14.43L127.80 14.43L127.80 14.43Q127.40 15.01 126.92 15.30L126.92 15.30L126.92 15.30Q126.44 15.58 125.83 15.58Z"></path></g><!----><g data-v-423bf9ae="" id="98309b39-dc95-4305-b77a-ca849f368bd6" transform="matrix(1.4753904604054007,0,0,1.4753904604054007,0.7355086869521728,1.2380756623507665)" stroke="none" fill="#B1B21E"><path d="M59 60.5H1a1 1 0 0 1-1-1v-6a1 1 0 0 1 1-1h58a1 1 0 0 1 1 1v6a1 1 0 0 1-1 1zm-57-2h56v-4H2v4z"></path><path d="M57 54.5H3a1 1 0 0 1-1-1v-6a1 1 0 0 1 1-1h54a1 1 0 0 1 1 1v6a1 1 0 0 1-1 1zm-53-2h52v-4H4v4zM57 23.5H3a1 1 0 0 1-1-1v-4a1 1 0 0 1 1-1h54a1 1 0 0 1 1 1v4a1 1 0 0 1-1 1zm-53-2h52v-2H4v2z"></path><path d="M59 19.5H1a1.002 1.002 0 0 1-.527-1.85l29-18a.998.998 0 0 1 1.055 0l29 18A.999.999 0 0 1 59 19.5zm-54.493-2h50.985L30 1.677 4.507 17.5zM13 27.5H5a1 1 0 0 1-1-1v-4a1 1 0 0 1 1-1h8a1 1 0 0 1 1 1v4a1 1 0 0 1-1 1zm-7-2h6v-2H6v2zM55 27.5h-8a1 1 0 0 1-1-1v-4a1 1 0 0 1 1-1h8a1 1 0 0 1 1 1v4a1 1 0 0 1-1 1zm-7-2h6v-2h-6v2zM34 27.5h-8a1 1 0 0 1-1-1v-4a1 1 0 0 1 1-1h8a1 1 0 0 1 1 1v4a1 1 0 0 1-1 1zm-7-2h6v-2h-6v2zM13 48.5H5a1 1 0 0 1-1-1v-4a1 1 0 0 1 1-1h8a1 1 0 0 1 1 1v4a1 1 0 0 1-1 1zm-7-2h6v-2H6v2zM55 48.5h-8a1 1 0 0 1-1-1v-4a1 1 0 0 1 1-1h8a1 1 0 0 1 1 1v4a1 1 0 0 1-1 1zm-7-2h6v-2h-6v2zM34 48.5h-8a1 1 0 0 1-1-1v-4a1 1 0 0 1 1-1h8a1 1 0 0 1 1 1v4a1 1 0 0 1-1 1zm-7-2h6v-2h-6v2z"></path><path d="M12 44.5H6a1 1 0 0 1-1-1v-17a1 1 0 0 1 1-1h6a1 1 0 0 1 1 1v17a1 1 0 0 1-1 1zm-5-2h4v-15H7v15zM33 44.5h-6a1 1 0 0 1-1-1v-17a1 1 0 0 1 1-1h6a1 1 0 0 1 1 1v17a1 1 0 0 1-1 1zm-5-2h4v-15h-4v15zM54 44.5h-6a1 1 0 0 1-1-1v-17a1 1 0 0 1 1-1h6a1 1 0 0 1 1 1v17a1 1 0 0 1-1 1zm-5-2h4v-15h-4v15zM30 15.5c-1.654 0-3-1.346-3-3a1 1 0 1 1 2 0 1 1 0 1 0 1-1c-1.654 0-3-1.346-3-3s1.346-3 3-3c1.655 0 3 1.346 3 3a1 1 0 1 1-2 0 1.001 1.001 0 0 0-2 0 1 1 0 0 0 1 1c1.655 0 3 1.346 3 3s-1.346 3-3 3z"></path><path d="M30 7.5a1 1 0 0 1-1-1v-1a1 1 0 1 1 2 0v1a1 1 0 0 1-1 1zM30 16.5a1 1 0 0 1-1-1v-1a1 1 0 1 1 2 0v1a1 1 0 0 1-1 1z"></path></g><!----><g data-v-423bf9ae="" id="dddc1474-d3e8-417a-843d-d624e6bb810d" fill="#FFFFFF" transform="matrix(2.358284033593258,0,0,2.358284033593258,110.83078607772381,58.34665162828874)"><path d="M4.55 2.35L4.55 2.35Q3.60 2.17 2.59 2.15L2.59 2.15L2.59 2.15Q2.50 2.03 2.02 2.11L2.02 2.11L2.02 2.11Q1.92 2.13 1.80 2.16L1.80 2.16L1.80 2.16Q0.74 2.22-0.30 2.46L-0.30 2.46L-0.30 2.46Q-1.04 2.63-0.97 2.88L-0.97 2.88L-0.97 2.88Q-0.92 3.08-0.20 2.91L-0.20 2.91L-0.20 2.91Q-0.19 2.91-0.18 2.90L-0.18 2.90L-0.18 2.90Q-0.16 2.90-0.15 2.89L-0.15 2.89L-0.15 2.89Q-0.08 2.88 0.08 2.85L0.08 2.85L0.08 2.85Q0.25 2.82 0.47 2.80L0.47 2.80L0.47 2.80Q0.76 2.76 1.09 2.75L1.09 2.75L1.09 2.75Q-0.33 7.40-0.72 10.96L-0.72 10.96L-0.72 10.96Q-0.73 11.02-0.51 11.03L-0.51 11.03L-0.51 11.03Q-0.29 11.04-0.01 10.99L-0.01 10.99L-0.01 10.99Q0.71 10.86 0.74 10.56L0.74 10.56L0.74 10.56Q1.11 7.19 2.43 2.78L2.43 2.78L2.43 2.78Q2.91 2.82 3.34 2.91L3.34 2.91L3.34 2.91Q3.78 2.99 4.37 2.72L4.37 2.72L4.37 2.72Q4.53 2.65 4.62 2.54L4.62 2.54L4.62 2.54Q4.76 2.39 4.55 2.35L4.55 2.35ZM15.50 1.31L15.50 1.31Q15.19 1.36 14.94 1.48L14.94 1.48L14.94 1.48Q14.66 1.61 14.64 1.70L14.64 1.70L14.64 1.70Q14.44 2.55 13.99 4.25L13.99 4.25L13.99 4.25Q13.54 5.94 13.34 6.80L13.34 6.80L13.34 6.80Q12.69 6.88 12.01 7.03L12.01 7.03L12.01 7.03Q12.22 6.04 12.63 4.31L12.63 4.31L12.63 4.31Q13.09 2.37 13.25 1.59L13.25 1.59L13.25 1.59Q13.31 1.34 12.67 1.46L12.67 1.46L12.67 1.46Q12.37 1.51 12.12 1.63L12.12 1.63L12.12 1.63Q11.84 1.76 11.82 1.85L11.82 1.85L11.82 1.85Q11.65 2.61 11.17 4.64L11.17 4.64L11.17 4.64Q10.75 6.41 10.54 7.44L10.54 7.44L10.54 7.44Q10.40 7.49 10.37 7.50L10.37 7.50L10.37 7.50Q10.21 7.55 10.05 7.66L10.05 7.66L10.05 7.66Q9.80 7.82 9.93 7.91L9.93 7.91L9.93 7.91Q10.10 8.01 10.44 7.94L10.44 7.94L10.44 7.94Q10.12 9.65 9.99 11.08L9.99 11.08L9.99 11.08Q9.99 11.15 10.21 11.16L10.21 11.16L10.21 11.16Q10.42 11.17 10.71 11.12L10.71 11.12L10.71 11.12Q11.43 10.98 11.45 10.69L11.45 10.69L11.45 10.69Q11.57 9.26 11.91 7.53L11.91 7.53L11.91 7.53Q12.11 7.49 12.46 7.42L12.46 7.42L12.46 7.42Q12.84 7.36 13.21 7.33L13.21 7.33L13.21 7.33Q12.75 9.44 12.66 11.13L12.66 11.13L12.66 11.13Q12.66 11.20 12.89 11.21L12.89 11.21L12.89 11.21Q13.10 11.22 13.38 11.17L13.38 11.17L13.38 11.17Q14.11 11.03 14.12 10.74L14.12 10.74L14.12 10.74Q14.21 9.17 14.62 7.25L14.62 7.25L14.62 7.25Q14.95 7.18 15.21 7.02L15.21 7.02L15.21 7.02Q15.39 6.91 15.36 6.82L15.36 6.82L15.36 6.82Q15.33 6.72 15.13 6.71L15.13 6.71L15.13 6.71Q14.96 6.71 14.73 6.71L14.73 6.71L14.73 6.71Q14.94 5.79 15.40 4.07L15.40 4.07L15.40 4.07Q15.88 2.28 16.08 1.44L16.08 1.44L16.08 1.44Q16.13 1.19 15.50 1.31L15.50 1.31ZM27.30 1.42L27.30 1.42Q26.59 1.19 25.41 1.57L25.41 1.57L25.41 1.57Q23.90 2.06 23.34 3.77L23.34 3.77L23.34 3.77Q22.99 4.83 23.17 6.11L23.17 6.11L23.17 6.11Q23.26 6.76 23.52 7.16L23.52 7.16L23.52 7.16Q23.11 7.38 22.81 7.70L22.81 7.70L22.81 7.70Q21.81 8.80 21.92 10.01L21.92 10.01L21.92 10.01Q21.99 10.70 22.47 11.11L22.47 11.11L22.47 11.11Q22.87 11.44 23.69 11.42L23.69 11.42L23.69 11.42Q24.53 11.39 25.23 10.95L25.23 10.95L25.23 10.95Q25.98 10.49 26.28 9.76L26.28 9.76L26.28 9.76Q26.35 9.61 26.07 9.60L26.07 9.60L26.07 9.60Q25.89 9.59 25.70 9.63L25.70 9.63L25.70 9.63Q24.95 9.76 24.85 10.02L24.85 10.02L24.85 10.02Q24.65 10.51 24.30 10.80L24.30 10.80L24.30 10.80Q24.29 10.81 24.27 10.82L24.27 10.82L24.27 10.82Q24.23 10.81 24.22 10.81L24.22 10.81L24.22 10.81Q24.15 10.79 24.07 10.75L24.07 10.75L24.07 10.75Q23.91 10.68 23.75 10.52L23.75 10.52L23.75 10.52Q23.46 10.23 23.39 9.63L23.39 9.63L23.39 9.63Q23.29 8.83 23.92 7.86L23.92 7.86L23.92 7.86Q24.00 7.74 24.10 7.62L24.10 7.62L24.10 7.62Q24.32 7.70 24.59 7.72L24.59 7.72L24.59 7.72Q24.99 7.74 25.48 7.51L25.48 7.51L25.48 7.51Q25.90 7.32 25.75 7.18L25.75 7.18L25.75 7.18Q25.46 6.90 25.04 6.84L25.04 6.84L25.04 6.84Q25.00 6.79 24.96 6.75L24.96 6.75L24.96 6.75Q24.76 6.45 24.65 5.89L24.65 5.89L24.65 5.89Q24.46 4.89 24.64 4.00L24.64 4.00L24.64 4.00Q24.91 2.70 25.68 2.04L25.68 2.04L25.68 2.04Q25.73 2.00 25.83 1.93L25.83 1.93L25.83 1.93Q25.83 1.93 25.83 1.93L25.83 1.93L25.83 1.93Q25.96 1.94 25.94 1.93L25.94 1.93L25.94 1.93Q26.52 2.02 26.41 2.62L26.41 2.62L26.41 2.62Q26.36 2.86 26.99 2.75L26.99 2.75L26.99 2.75Q27.30 2.69 27.55 2.58L27.55 2.58L27.55 2.58Q27.83 2.45 27.85 2.36L27.85 2.36L27.85 2.36Q27.99 1.63 27.30 1.42L27.30 1.42ZM46.76 9.37L46.76 9.37Q46.66 9.50 46.41 9.70L46.41 9.70L46.41 9.70Q46.37 9.73 46.27 9.80L46.27 9.80L46.27 9.80Q46.21 9.84 46.16 9.87L46.16 9.87L46.16 9.87Q46.05 9.94 46.05 9.93L46.05 9.93L46.05 9.93Q45.96 9.97 45.85 10.03L45.85 10.03L45.85 10.03Q45.83 10.04 45.77 10.06L45.77 10.06L45.77 10.06Q45.76 10.07 45.66 10.11L45.66 10.11L45.66 10.11Q45.64 10.11 45.57 10.14L45.57 10.14L45.57 10.14Q45.49 10.16 45.49 10.17L45.49 10.17L45.49 10.17Q45.40 10.19 45.29 10.21L45.29 10.21L45.29 10.21Q45.27 10.23 45.12 10.25L45.12 10.25L45.12 10.25Q45.12 10.25 45.07 10.26L45.07 10.26L45.07 10.26Q45.10 10.26 44.95 10.27L44.95 10.27L44.95 10.27Q44.88 10.28 44.75 10.29L44.75 10.29L44.75 10.29Q44.78 10.29 44.60 10.29L44.60 10.29L44.60 10.29Q44.68 10.03 45.04 8.24L45.04 8.24L45.04 8.24Q45.36 8.20 45.64 8.05L45.64 8.05L45.64 8.05Q45.76 7.99 45.90 7.93L45.90 7.93L45.90 7.93Q45.91 7.92 45.92 7.92L45.92 7.92L45.92 7.92Q45.92 7.92 45.92 7.92L45.92 7.92L45.92 7.92Q46.01 7.88 46.13 7.84L46.13 7.84L46.13 7.84Q46.14 7.84 46.14 7.83L46.14 7.83L46.15 7.83L46.15 7.83Q46.17 7.83 46.23 7.81L46.23 7.81L46.23 7.81Q46.31 7.79 46.31 7.79L46.31 7.79L46.31 7.79Q46.35 7.79 46.40 7.78L46.40 7.78L46.40 7.78Q46.44 7.77 46.48 7.77L46.48 7.77L46.48 7.77Q46.48 7.77 46.48 7.77L46.48 7.77L46.48 7.77Q46.50 7.77 46.53 7.77L46.53 7.77L46.53 7.77Q46.57 7.77 46.58 7.77L46.58 7.77L46.58 7.77Q46.59 7.77 46.63 7.78L46.63 7.78L46.63 7.78Q46.76 7.81 46.87 7.88L46.87 7.88L46.87 7.88Q47.09 8.03 47.09 8.46L47.09 8.46L47.09 8.46Q47.09 8.93 46.76 9.37L46.76 9.37ZM46.38 6.15L46.38 6.15Q45.89 6.95 45.20 7.54L45.20 7.54L45.20 7.54Q45.34 6.95 45.61 6.02L45.61 6.02L45.61 6.02Q46.34 3.45 46.53 2.44L46.53 2.44L46.53 2.44Q47.04 2.95 47.11 3.83L47.11 3.83L47.11 3.83Q47.18 4.83 46.38 6.15L46.38 6.15ZM46.70 7.25L46.70 7.25Q47.31 6.67 47.78 5.95L47.78 5.95L47.78 5.95Q48.68 4.56 48.56 3.30L48.56 3.30L48.56 3.30Q48.44 2.15 47.43 1.62L47.43 1.62L47.43 1.62Q46.41 1.08 44.81 1.55L44.81 1.55L44.81 1.55Q44.08 1.76 44.13 1.96L44.13 1.96L44.13 1.96Q44.20 2.20 44.93 1.99L44.93 1.99L44.93 1.99Q45.10 1.93 45.06 1.95L45.06 1.95L45.06 1.95Q45.12 1.94 45.12 1.93L45.12 1.93L45.12 1.93Q45.14 1.93 45.15 1.93L45.15 1.93L45.15 1.93Q45.19 1.93 45.22 1.93L45.22 1.93L45.22 1.93Q45.20 1.97 45.19 2.02L45.19 2.02L45.19 2.02Q45.04 3.23 44.17 6.28L44.17 6.28L44.17 6.28Q43.82 7.50 43.63 8.38L43.63 8.38L43.63 8.38Q43.13 10.71 43.14 10.66L43.14 10.66L43.14 10.66Q43.09 10.84 43.44 10.83L43.44 10.83L43.44 10.83Q43.50 10.87 43.63 10.88L43.63 10.88L43.63 10.88Q45.17 10.93 46.80 10.16L46.80 10.16L46.80 10.16Q48.41 9.39 48.55 8.16L48.55 8.16L48.55 8.16Q48.69 6.88 46.70 7.25L46.70 7.25ZM58.52 7.89L58.52 7.89Q58.41 7.90 57.51 7.84L57.51 7.84L57.51 7.84Q57.92 6.63 58.38 5.57L58.38 5.57L58.38 5.57Q58.54 5.18 59.09 3.95L59.09 3.95L59.09 3.95Q59.07 4.61 58.88 7.85L58.88 7.85L58.88 7.85Q58.71 7.87 58.52 7.89L58.52 7.89ZM60.33 1.18L60.33 1.18Q60.14 1.09 59.76 1.16L59.76 1.16L59.76 1.16Q59.12 1.27 58.91 1.55L58.91 1.55L58.91 1.55Q58.71 1.80 57.93 3.58L57.93 3.58L57.93 3.58Q57.79 3.90 57.43 4.70L57.43 4.70L57.43 4.70Q57.11 5.42 56.94 5.83L56.94 5.83L56.94 5.83Q56.52 6.79 56.14 7.86L56.14 7.86L56.14 7.86Q55.22 7.97 54.57 8.37L54.57 8.37L54.57 8.37Q54.39 8.48 54.42 8.58L54.42 8.58L54.42 8.58Q54.45 8.67 54.65 8.68L54.65 8.68L54.65 8.68Q55.17 8.70 55.64 8.43L55.64 8.43L55.64 8.43Q55.79 8.41 55.84 8.41L55.84 8.41L55.84 8.41Q55.90 8.41 55.96 8.41L55.96 8.41L55.96 8.41Q55.64 9.39 55.32 10.53L55.32 10.53L55.32 10.53Q55.25 10.79 55.90 10.67L55.90 10.67L55.90 10.67Q56.21 10.62 56.46 10.49L56.46 10.49L56.46 10.49Q56.73 10.37 56.76 10.27L56.76 10.27L56.76 10.27Q57.03 9.32 57.30 8.48L57.30 8.48L57.30 8.48Q57.59 8.50 57.79 8.47L57.79 8.47L57.79 8.47Q58.50 8.39 58.85 8.46L58.85 8.46L58.85 8.46Q58.74 10.55 58.74 12.02L58.74 12.02L58.74 12.02Q58.74 12.10 58.97 12.11L58.97 12.11L58.97 12.11Q59.19 12.12 59.47 12.06L59.47 12.06L59.47 12.06Q60.20 11.91 60.20 11.62L60.20 11.62L60.20 11.62Q60.20 9.90 60.41 6.45L60.41 6.45L60.41 6.45Q60.61 3.00 60.61 1.27L60.61 1.27L60.61 1.27Q60.61 1.18 60.33 1.18L60.33 1.18ZM73.99 0.74L73.99 0.74Q73.68 0.79 73.42 0.91L73.42 0.91L73.42 0.91Q73.15 1.04 73.12 1.13L73.12 1.13L73.12 1.13Q72.24 3.96 71.62 7.39L71.62 7.39L71.62 7.39Q71.54 6.88 71.42 6.21L71.42 6.21L71.42 6.21Q71.13 4.44 71.08 4.05L71.08 4.05L71.08 4.05Q70.93 2.77 70.74 2.37L70.74 2.37L70.74 2.37Q70.74 2.37 70.72 2.35L70.72 2.35L70.73 2.34L70.73 2.34Q70.73 2.34 70.73 2.33L70.73 2.33L70.73 2.33Q70.77 2.08 70.14 2.20L70.14 2.20L70.14 2.20Q69.84 2.26 69.59 2.37L69.59 2.37L69.59 2.37Q69.30 2.51 69.29 2.60L69.29 2.60L69.29 2.60Q69.10 3.71 68.46 6.73L68.46 6.73L68.46 6.73Q67.92 9.34 67.71 10.89L67.71 10.89L67.71 10.89Q67.70 11.01 68.08 10.98L68.08 10.98L68.08 10.98Q68.33 10.96 68.50 10.91L68.50 10.91L68.50 10.91Q69.15 10.74 69.17 10.50L69.17 10.50L69.17 10.50Q69.37 8.97 69.92 6.38L69.92 6.38L69.92 6.38Q69.95 6.54 69.96 6.61L69.96 6.61L69.96 6.61Q70.18 7.90 70.36 8.95L70.36 8.95L70.36 8.95Q70.62 10.45 70.84 11.09L70.84 11.09L70.84 11.09Q70.90 11.24 71.24 11.21L71.24 11.21L71.24 11.21Q71.55 11.18 71.89 11.05L71.89 11.05L71.89 11.05Q72.47 10.89 72.51 10.65L72.51 10.65L72.51 10.65Q73.28 5.00 74.57 0.87L74.57 0.87L74.57 0.87Q74.65 0.62 73.99 0.74L73.99 0.74ZM86.35 1.54L86.35 1.54Q86.05 1.59 85.80 1.71L85.80 1.71L85.80 1.71Q85.51 1.85 85.50 1.93L85.50 1.93L85.50 1.93Q85.24 3.23 84 4.91L84 4.91L84 4.91Q83.33 5.82 82.33 6.87L82.33 6.87L82.33 6.87Q82.43 6.31 82.48 6.09L82.48 6.09L82.48 6.09Q83.00 3.42 83.82 2.26L83.82 2.26L83.82 2.26Q83.91 2.12 83.60 2.11L83.60 2.11L83.60 2.11Q83.38 2.09 83.23 2.12L83.23 2.12L83.23 2.12Q82.57 2.24 82.37 2.52L82.37 2.52L82.37 2.52Q81.55 3.68 81.02 6.43L81.02 6.43L81.02 6.43Q80.63 8.43 80.62 8.47L80.62 8.47L80.62 8.47Q80.14 10.61 80.13 10.85L80.13 10.85L80.13 10.85Q80.12 10.92 80.35 10.93L80.35 10.93L80.35 10.93Q80.56 10.94 80.84 10.88L80.84 10.88L80.84 10.88Q81.57 10.75 81.59 10.45L81.59 10.45L81.59 10.45Q81.61 10.17 82.06 8.22L82.06 8.22L82.06 8.22Q82.39 8.85 82.65 9.69L82.65 9.69L82.65 9.69Q83.06 10.97 83.04 12.02L83.04 12.02L83.04 12.02Q83.04 12.11 83.28 12.11L83.28 12.11L83.28 12.11Q83.49 12.13 83.77 12.07L83.77 12.07L83.77 12.07Q84.51 11.92 84.51 11.63L84.51 11.63L84.51 11.63Q84.52 10.62 84.12 9.30L84.12 9.30L84.12 9.30Q83.73 8.07 83.17 7.25L83.17 7.25L83.17 7.25Q84.49 5.91 85.39 4.72L85.39 4.72L85.39 4.72Q86.67 3.01 86.93 1.67L86.93 1.67L86.93 1.67Q86.99 1.42 86.35 1.54L86.35 1.54ZM108.34 1.59L108.34 1.59Q107.24 1.45 105.56 1.75L105.56 1.75L105.56 1.75Q105.57 1.74 105.57 1.70L105.57 1.70L105.57 1.70Q105.59 1.66 105.59 1.64L105.59 1.64L105.59 1.64Q105.66 1.39 105.01 1.50L105.01 1.50L105.01 1.50Q104.71 1.56 104.45 1.67L104.45 1.67L104.45 1.67Q104.18 1.80 104.15 1.90L104.15 1.90L104.15 1.90Q104.16 1.88 104.10 2.08L104.10 2.08L104.10 2.08Q103.91 2.18 103.85 2.30L103.85 2.30L103.85 2.30Q103.78 2.43 104.00 2.45L104.00 2.45L104.00 2.45Q102.73 7.25 102.22 10.98L102.22 10.98L102.22 10.98Q102.21 11.10 102.59 11.07L102.59 11.07L102.59 11.07Q102.85 11.05 103.02 11.00L103.02 11.00L103.02 11.00Q103.65 10.83 103.69 10.59L103.69 10.59L103.69 10.59Q103.91 8.95 104.27 7.16L104.27 7.16L104.27 7.16Q104.20 7.17 105.26 7.09L105.26 7.09L105.26 7.09Q105.90 7.05 106.24 6.75L106.24 6.75L106.24 6.75Q106.39 6.60 106.20 6.54L106.20 6.54L106.20 6.54Q106.07 6.50 105.90 6.51L105.90 6.51L105.90 6.51Q104.77 6.60 104.37 6.66L104.37 6.66L104.37 6.66Q104.79 4.65 105.43 2.24L105.43 2.24L105.43 2.24Q106.45 2.06 107.14 2.15L107.14 2.15L107.14 2.15Q107.62 2.21 108.16 1.96L108.16 1.96L108.16 1.96Q108.30 1.89 108.41 1.78L108.41 1.78L108.41 1.78Q108.56 1.62 108.34 1.59L108.34 1.59ZM116.85 5.20L116.85 5.20Q116.72 6.64 116.46 7.92L116.46 7.92L116.46 7.92Q116.05 9.88 115.27 10.64L115.27 10.64L115.27 10.64Q115.19 10.55 115.11 10.38L115.11 10.38L115.11 10.38Q114.93 9.97 114.94 9.03L114.94 9.03L114.94 9.03Q114.97 7.34 115.54 5.48L115.54 5.48L115.54 5.48Q116.04 3.85 116.74 3.01L116.74 3.01L116.74 3.01Q116.81 3.25 116.86 3.62L116.86 3.62L116.86 3.62Q116.93 4.21 116.85 5.20L116.85 5.20ZM117.78 1.96L117.78 1.96Q117.57 1.79 116.83 2.05L116.83 2.05L116.83 2.05Q116.33 2.24 116.35 2.39L116.35 2.39L116.35 2.39Q116.10 2.48 115.92 2.63L115.92 2.63L115.92 2.63Q114.94 3.40 114.28 5.22L114.28 5.22L114.28 5.22Q113.73 6.70 113.54 8.50L113.54 8.50L113.54 8.50Q113.46 9.28 113.48 9.92L113.48 9.92L113.48 9.92Q113.52 10.77 113.89 11.13L113.89 11.13L113.89 11.13Q114.07 11.31 114.50 11.33L114.50 11.33L114.50 11.33Q115.04 11.36 115.87 11.02L115.87 11.02L115.87 11.02Q116.55 10.74 117.07 9.94L117.07 9.94L117.07 9.94Q117.54 9.21 117.86 7.85L117.86 7.85L117.86 7.85Q118.07 6.94 118.19 5.84L118.19 5.84L118.19 5.84Q118.36 4.44 118.36 3.78L118.36 3.78L118.36 3.78Q118.34 2.45 117.78 1.96L117.78 1.96ZM129.10 5.31L129.10 5.31Q128.95 6.24 128.05 7.18L128.05 7.18L128.05 7.18Q127.86 7.38 127.62 7.58L127.62 7.58L127.62 7.58Q127.56 7.63 127.50 7.68L127.50 7.68L127.50 7.68Q127.28 7.59 127.03 7.58L127.03 7.58L127.03 7.58Q127.59 4.74 127.73 2.66L127.73 2.66L127.73 2.66Q128.00 2.80 128.24 2.99L128.24 2.99L128.24 2.99Q128.75 3.39 128.98 4.03L128.98 4.03L128.98 4.03Q129.21 4.65 129.10 5.31L129.10 5.31ZM126.12 2.40L126.12 2.40Q126.12 2.40 126.14 2.39L126.14 2.39L126.14 2.39Q126.13 2.40 126.12 2.40L126.12 2.40ZM131.06 11.42L131.06 11.42Q130.33 10.88 128.80 8.99L128.80 8.99L128.80 8.99Q128.13 8.17 128.01 8.05L128.01 8.05L128.01 8.05Q128.47 7.84 128.90 7.50L128.90 7.50L128.90 7.50Q130.10 6.56 130.46 5.41L130.46 5.41L130.46 5.41Q130.70 4.60 130.50 3.84L130.50 3.84L130.50 3.84Q130.29 3.07 129.66 2.53L129.66 2.53L129.66 2.53Q128.42 1.46 126.35 1.88L126.35 1.88L126.35 1.88Q126.22 1.91 126.02 1.96L126.02 1.96L126.02 1.96Q125.28 2.14 125.34 2.37L125.34 2.37L125.34 2.37Q125.41 2.58 126.12 2.40L126.12 2.40L126.12 2.40Q126.18 2.39 126.23 2.38L126.23 2.38L126.23 2.38Q126.27 2.37 126.31 2.37L126.31 2.37L126.31 2.37Q126.19 5.11 124.95 10.79L124.95 10.79L124.95 10.79Q124.90 11.04 125.54 10.92L125.54 10.92L125.54 10.92Q125.84 10.87 126.10 10.75L126.10 10.75L126.10 10.75Q126.38 10.62 126.40 10.53L126.40 10.53L126.40 10.53Q126.69 9.17 126.79 8.72L126.79 8.72L126.79 8.72Q126.79 8.72 126.79 8.72L126.79 8.72L126.79 8.72Q126.80 8.72 126.80 8.72L126.80 8.72L126.80 8.72Q126.91 8.85 127.59 9.70L127.59 9.70L127.59 9.70Q128.91 11.34 129.68 11.92L129.68 11.92L129.68 11.92Q129.90 12.09 130.62 11.83L130.62 11.83L130.62 11.83Q130.81 11.76 130.95 11.67L130.95 11.67L130.95 11.67Q131.20 11.52 131.06 11.42L131.06 11.42ZM150.59 9.37L150.59 9.37Q150.49 9.50 150.24 9.70L150.24 9.70L150.24 9.70Q150.20 9.73 150.10 9.80L150.10 9.80L150.10 9.80Q150.04 9.84 149.99 9.87L149.99 9.87L149.99 9.87Q149.88 9.94 149.88 9.93L149.88 9.93L149.88 9.93Q149.80 9.97 149.68 10.03L149.68 10.03L149.68 10.03Q149.66 10.04 149.60 10.06L149.60 10.06L149.60 10.06Q149.59 10.07 149.49 10.11L149.49 10.11L149.49 10.11Q149.47 10.11 149.40 10.14L149.40 10.14L149.40 10.14Q149.32 10.16 149.32 10.17L149.32 10.17L149.32 10.17Q149.23 10.19 149.13 10.21L149.13 10.21L149.13 10.21Q149.10 10.23 148.96 10.25L148.96 10.25L148.96 10.25Q148.96 10.25 148.90 10.26L148.90 10.26L148.90 10.26Q148.93 10.26 148.78 10.27L148.78 10.27L148.78 10.27Q148.71 10.28 148.59 10.29L148.59 10.29L148.59 10.29Q148.61 10.29 148.44 10.29L148.44 10.29L148.44 10.29Q148.51 10.03 148.87 8.24L148.87 8.24L148.87 8.24Q149.19 8.20 149.47 8.05L149.47 8.05L149.47 8.05Q149.59 7.99 149.73 7.93L149.73 7.93L149.73 7.93Q149.74 7.92 149.75 7.92L149.75 7.92L149.75 7.92Q149.75 7.92 149.75 7.92L149.75 7.92L149.75 7.92Q149.84 7.88 149.96 7.84L149.96 7.84L149.96 7.84Q149.97 7.84 149.97 7.83L149.97 7.83L149.98 7.83L149.98 7.83Q150.00 7.83 150.06 7.81L150.06 7.81L150.06 7.81Q150.14 7.79 150.14 7.79L150.14 7.79L150.14 7.79Q150.19 7.79 150.23 7.78L150.23 7.78L150.23 7.78Q150.27 7.77 150.31 7.77L150.31 7.77L150.31 7.77Q150.31 7.77 150.32 7.77L150.32 7.77L150.32 7.77Q150.34 7.77 150.36 7.77L150.36 7.77L150.36 7.77Q150.40 7.77 150.41 7.77L150.41 7.77L150.41 7.77Q150.42 7.77 150.47 7.78L150.47 7.78L150.47 7.78Q150.59 7.81 150.70 7.88L150.70 7.88L150.70 7.88Q150.92 8.03 150.92 8.46L150.92 8.46L150.92 8.46Q150.92 8.93 150.59 9.37L150.59 9.37ZM150.21 6.15L150.21 6.15Q149.72 6.95 149.03 7.54L149.03 7.54L149.03 7.54Q149.17 6.95 149.44 6.02L149.44 6.02L149.44 6.02Q150.17 3.45 150.36 2.44L150.36 2.44L150.36 2.44Q150.88 2.95 150.94 3.83L150.94 3.83L150.94 3.83Q151.01 4.83 150.21 6.15L150.21 6.15ZM150.53 7.25L150.53 7.25Q151.14 6.67 151.61 5.95L151.61 5.95L151.61 5.95Q152.51 4.56 152.39 3.30L152.39 3.30L152.39 3.30Q152.27 2.15 151.27 1.62L151.27 1.62L151.27 1.62Q150.24 1.08 148.64 1.55L148.64 1.55L148.64 1.55Q147.91 1.76 147.96 1.96L147.96 1.96L147.96 1.96Q148.03 2.20 148.76 1.99L148.76 1.99L148.76 1.99Q148.93 1.93 148.89 1.95L148.89 1.95L148.89 1.95Q148.95 1.94 148.96 1.93L148.96 1.93L148.96 1.93Q148.97 1.93 148.98 1.93L148.98 1.93L148.98 1.93Q149.02 1.93 149.05 1.93L149.05 1.93L149.05 1.93Q149.03 1.97 149.02 2.02L149.02 2.02L149.02 2.02Q148.87 3.23 148.00 6.28L148.00 6.28L148.00 6.28Q147.65 7.50 147.46 8.38L147.46 8.38L147.46 8.38Q146.96 10.71 146.97 10.66L146.97 10.66L146.97 10.66Q146.92 10.84 147.27 10.83L147.27 10.83L147.27 10.83Q147.33 10.87 147.46 10.88L147.46 10.88L147.46 10.88Q149.00 10.93 150.63 10.16L150.63 10.16L150.63 10.16Q152.24 9.39 152.38 8.16L152.38 8.16L152.38 8.16Q152.52 6.88 150.53 7.25L150.53 7.25ZM162.35 7.89L162.35 7.89Q162.24 7.90 161.34 7.84L161.34 7.84L161.34 7.84Q161.75 6.63 162.21 5.57L162.21 5.57L162.21 5.57Q162.37 5.18 162.92 3.95L162.92 3.95L162.92 3.95Q162.90 4.61 162.72 7.85L162.72 7.85L162.72 7.85Q162.54 7.87 162.35 7.89L162.35 7.89ZM164.16 1.18L164.16 1.18Q163.97 1.09 163.59 1.16L163.59 1.16L163.59 1.16Q162.95 1.27 162.74 1.55L162.74 1.55L162.74 1.55Q162.54 1.80 161.76 3.58L161.76 3.58L161.76 3.58Q161.62 3.90 161.26 4.70L161.26 4.70L161.26 4.70Q160.95 5.42 160.77 5.83L160.77 5.83L160.77 5.83Q160.35 6.79 159.97 7.86L159.97 7.86L159.97 7.86Q159.05 7.97 158.40 8.37L158.40 8.37L158.40 8.37Q158.22 8.48 158.25 8.58L158.25 8.58L158.25 8.58Q158.28 8.67 158.48 8.68L158.48 8.68L158.48 8.68Q159.00 8.70 159.48 8.43L159.48 8.43L159.48 8.43Q159.62 8.41 159.67 8.41L159.67 8.41L159.67 8.41Q159.73 8.41 159.79 8.41L159.79 8.41L159.79 8.41Q159.47 9.39 159.15 10.53L159.15 10.53L159.15 10.53Q159.08 10.79 159.74 10.67L159.74 10.67L159.74 10.67Q160.04 10.62 160.29 10.49L160.29 10.49L160.29 10.49Q160.56 10.37 160.59 10.27L160.59 10.27L160.59 10.27Q160.86 9.32 161.13 8.48L161.13 8.48L161.13 8.48Q161.42 8.50 161.62 8.47L161.62 8.47L161.62 8.47Q162.33 8.39 162.68 8.46L162.68 8.46L162.68 8.46Q162.57 10.55 162.57 12.02L162.57 12.02L162.57 12.02Q162.57 12.10 162.80 12.11L162.80 12.11L162.80 12.11Q163.02 12.12 163.30 12.06L163.30 12.06L163.30 12.06Q164.04 11.91 164.04 11.62L164.04 11.62L164.04 11.62Q164.04 9.90 164.24 6.45L164.24 6.45L164.24 6.45Q164.44 3.00 164.44 1.27L164.44 1.27L164.44 1.27Q164.44 1.18 164.16 1.18L164.16 1.18ZM177.82 0.74L177.82 0.74Q177.51 0.79 177.26 0.91L177.26 0.91L177.26 0.91Q176.98 1.04 176.96 1.13L176.96 1.13L176.96 1.13Q176.07 3.96 175.45 7.39L175.45 7.39L175.45 7.39Q175.37 6.88 175.25 6.21L175.25 6.21L175.25 6.21Q174.96 4.44 174.91 4.05L174.91 4.05L174.91 4.05Q174.76 2.77 174.57 2.37L174.57 2.37L174.57 2.37Q174.57 2.37 174.56 2.35L174.56 2.35L174.56 2.34L174.56 2.34Q174.56 2.34 174.56 2.33L174.56 2.33L174.56 2.33Q174.60 2.08 173.97 2.20L173.97 2.20L173.97 2.20Q173.67 2.26 173.42 2.37L173.42 2.37L173.42 2.37Q173.13 2.51 173.12 2.60L173.12 2.60L173.12 2.60Q172.94 3.71 172.29 6.73L172.29 6.73L172.29 6.73Q171.75 9.34 171.54 10.89L171.54 10.89L171.54 10.89Q171.53 11.01 171.91 10.98L171.91 10.98L171.91 10.98Q172.16 10.96 172.33 10.91L172.33 10.91L172.33 10.91Q172.98 10.74 173.00 10.50L173.00 10.50L173.00 10.50Q173.20 8.97 173.76 6.38L173.76 6.38L173.76 6.38Q173.78 6.54 173.79 6.61L173.79 6.61L173.79 6.61Q174.01 7.90 174.19 8.95L174.19 8.95L174.19 8.95Q174.45 10.45 174.67 11.09L174.67 11.09L174.67 11.09Q174.73 11.24 175.07 11.21L175.07 11.21L175.07 11.21Q175.38 11.18 175.72 11.05L175.72 11.05L175.72 11.05Q176.31 10.89 176.34 10.65L176.34 10.65L176.34 10.65Q177.11 5.00 178.40 0.87L178.40 0.87L178.40 0.87Q178.48 0.62 177.82 0.74L177.82 0.74ZM190.18 1.54L190.18 1.54Q189.88 1.59 189.63 1.71L189.63 1.71L189.63 1.71Q189.34 1.85 189.33 1.93L189.33 1.93L189.33 1.93Q189.08 3.23 187.83 4.91L187.83 4.91L187.83 4.91Q187.16 5.82 186.16 6.87L186.16 6.87L186.16 6.87Q186.27 6.31 186.31 6.09L186.31 6.09L186.31 6.09Q186.83 3.42 187.65 2.26L187.65 2.26L187.65 2.26Q187.74 2.12 187.43 2.11L187.43 2.11L187.43 2.11Q187.22 2.09 187.07 2.12L187.07 2.12L187.07 2.12Q186.40 2.24 186.20 2.52L186.20 2.52L186.20 2.52Q185.38 3.68 184.85 6.43L184.85 6.43L184.85 6.43Q184.46 8.43 184.45 8.47L184.45 8.47L184.45 8.47Q183.98 10.61 183.96 10.85L183.96 10.85L183.96 10.85Q183.96 10.92 184.18 10.93L184.18 10.93L184.18 10.93Q184.39 10.94 184.67 10.88L184.67 10.88L184.67 10.88Q185.40 10.75 185.42 10.45L185.42 10.45L185.42 10.45Q185.45 10.17 185.89 8.22L185.89 8.22L185.89 8.22Q186.22 8.85 186.48 9.69L186.48 9.69L186.48 9.69Q186.89 10.97 186.87 12.02L186.87 12.02L186.87 12.02Q186.87 12.11 187.11 12.11L187.11 12.11L187.11 12.11Q187.32 12.13 187.61 12.07L187.61 12.07L187.61 12.07Q188.34 11.92 188.34 11.63L188.34 11.63L188.34 11.63Q188.35 10.62 187.95 9.30L187.95 9.30L187.95 9.30Q187.56 8.07 187.00 7.25L187.00 7.25L187.00 7.25Q188.32 5.91 189.23 4.72L189.23 4.72L189.23 4.72Q190.50 3.01 190.76 1.67L190.76 1.67L190.76 1.67Q190.82 1.42 190.18 1.54L190.18 1.54ZM201.59 5.50L201.59 5.50Q202.04 4.74 202.25 3.53L202.25 3.53L202.25 3.53Q202.49 2.15 201.99 1.57L201.99 1.57L201.99 1.57Q201.70 1.22 200.95 1.27L200.95 1.27L200.95 1.27Q200.01 1.33 199.12 1.85L199.12 1.85L199.12 1.85Q197.87 2.59 197.26 4.34L197.26 4.34L197.26 4.34Q196.64 6.10 197.26 7.18L197.26 7.18L197.26 7.18Q197.55 7.68 198.93 8.17L198.93 8.17L198.93 8.17Q199.49 8.37 199.70 8.48L199.70 8.48L199.70 8.48Q200.14 8.74 200.22 9.11L200.22 9.11L200.22 9.11Q200.32 9.50 199.98 10.17L199.98 10.17L199.98 10.17Q199.80 10.51 199.52 10.76L199.52 10.76L199.52 10.76Q199.40 10.87 199.25 10.97L199.25 10.97L199.25 10.97Q199.17 11.02 199.15 11.03L199.15 11.03L199.15 11.03Q199.09 11.07 199.03 11.09L199.03 11.09L199.03 11.09Q199.12 11.05 199.00 11.10L199.00 11.10L199.00 11.10Q199.01 11.10 199.07 11.09L199.07 11.09L199.07 11.09Q199.03 11.09 198.98 11.09L198.98 11.09L198.98 11.09Q198.97 11.10 198.88 11.09L198.88 11.09L198.88 11.09Q198.83 11.09 198.68 11.05L198.68 11.05L198.68 11.05Q198.32 10.97 198.02 10.64L198.02 10.64L198.02 10.64Q197.80 10.39 197.72 9.93L197.72 9.93L197.72 9.93Q197.61 9.44 197.84 9.28L197.84 9.28L197.84 9.28Q198.04 9.13 198.02 9.06L198.02 9.06L198.02 9.06Q197.99 8.97 197.76 8.96L197.76 8.96L197.76 8.96Q197.13 8.95 196.72 9.24L196.72 9.24L196.72 9.24Q196.33 9.53 196.26 9.86L196.26 9.86L196.26 9.86Q196.18 10.20 196.33 10.62L196.33 10.62L196.33 10.62Q196.61 11.36 197.48 11.61L197.48 11.61L197.48 11.61Q198.37 11.87 199.64 11.37L199.64 11.37L199.64 11.37Q200.65 10.96 201.22 10.24L201.22 10.24L201.22 10.24Q201.59 9.76 201.68 9.24L201.68 9.24L201.68 9.24Q201.78 8.62 201.40 8.23L201.40 8.23L201.40 8.23Q201.13 7.96 200.57 7.75L200.57 7.75L200.57 7.75Q200.42 7.70 200.11 7.59L200.11 7.59L200.11 7.59Q199.81 7.50 199.68 7.44L199.68 7.44L199.68 7.44Q199.15 7.23 198.87 6.97L198.87 6.97L198.87 6.97Q198.57 6.69 198.47 5.96L198.47 5.96L198.47 5.96Q198.27 4.53 199.22 2.97L199.22 2.97L199.22 2.97Q199.64 2.29 200.14 1.95L200.14 1.95L200.14 1.95Q200.19 1.91 200.29 1.86L200.29 1.86L200.29 1.86Q200.28 1.86 200.33 1.84L200.33 1.84L200.33 1.84Q200.32 1.84 200.36 1.83L200.36 1.83L200.36 1.83Q200.33 1.84 200.38 1.83L200.38 1.83L200.38 1.83Q200.30 1.85 200.22 1.85L200.22 1.85L200.22 1.85Q200.25 1.85 200.23 1.85L200.23 1.85L200.25 1.85L200.25 1.85Q200.31 1.86 200.39 1.89L200.39 1.89L200.39 1.89Q200.40 1.89 200.50 1.96L200.50 1.96L200.50 1.96Q200.57 2.01 200.61 2.06L200.61 2.06L200.61 2.06Q200.72 2.20 200.79 2.45L200.79 2.45L200.79 2.45Q200.91 2.84 200.85 3.49L200.85 3.49L200.85 3.49Q200.72 4.81 200.15 5.76L200.15 5.76L200.15 5.76Q200.06 5.90 200.37 5.91L200.37 5.91L200.37 5.91Q200.57 5.92 200.73 5.89L200.73 5.89L200.73 5.89Q201.43 5.76 201.59 5.50L201.59 5.50Z"></path></g></svg>