<svg data-v-423bf9ae="" xmlns="http://www.w3.org/2000/svg" viewBox="0 0 599.3103641303875 60" class="font"><!----><!----><!----><g data-v-423bf9ae="" id="7bcea556-eec6-46ae-b62a-d7b4f177f30b" fill="black" transform="matrix(4.597701082226675,0,0,4.597701082226675,-5.287350235697318,-11.632183844910784)"><path d="M8.60 9.96L8.60 9.96L8.60 9.96Q8.60 11.25 7.66 11.96L7.66 11.96L7.66 11.96Q6.73 12.67 5.06 12.67L5.06 12.67L1.15 12.67L1.15 3.04L4.65 3.04L4.65 3.04Q8.04 3.04 8.04 5.38L8.04 5.38L8.04 5.38Q8.04 6.23 7.56 6.82L7.56 6.82L7.56 6.82Q7.08 7.40 6.21 7.59L6.21 7.59L6.21 7.59Q7.36 7.73 7.98 8.36L7.98 8.36L7.98 8.36Q8.60 9.00 8.60 9.96ZM6.73 5.54L6.73 5.54L6.73 5.54Q6.73 4.76 6.19 4.42L6.19 4.42L6.19 4.42Q5.66 4.09 4.65 4.09L4.65 4.09L2.45 4.09L2.45 7.14L4.65 7.14L4.65 7.14Q5.69 7.14 6.21 6.74L6.21 6.74L6.21 6.74Q6.73 6.35 6.73 5.54ZM7.28 9.86L7.28 9.86L7.28 9.86Q7.28 8.16 4.89 8.16L4.89 8.16L2.45 8.16L2.45 11.63L4.99 11.63L4.99 11.63Q6.19 11.63 6.73 11.18L6.73 11.18L6.73 11.18Q7.28 10.74 7.28 9.86ZM11.50 3.71L10.27 3.71L10.27 2.53L11.50 2.53L11.50 3.71ZM11.50 12.67L10.27 12.67L10.27 5.28L11.50 5.28L11.50 12.67ZM19.33 12.67L18.09 12.67L18.09 7.98L18.09 7.98Q18.09 7.25 17.94 6.85L17.94 6.85L17.94 6.85Q17.80 6.45 17.49 6.27L17.49 6.27L17.49 6.27Q17.17 6.09 16.56 6.09L16.56 6.09L16.56 6.09Q15.67 6.09 15.16 6.70L15.16 6.70L15.16 6.70Q14.65 7.31 14.65 8.39L14.65 8.39L14.65 12.67L13.42 12.67L13.42 6.86L13.42 6.86Q13.42 5.56 13.38 5.28L13.38 5.28L14.54 5.28L14.54 5.28Q14.55 5.31 14.55 5.46L14.55 5.46L14.55 5.46Q14.56 5.61 14.57 5.81L14.57 5.81L14.57 5.81Q14.58 6.00 14.59 6.54L14.59 6.54L14.62 6.54L14.62 6.54Q15.04 5.78 15.60 5.46L15.60 5.46L15.60 5.46Q16.15 5.14 16.98 5.14L16.98 5.14L16.98 5.14Q18.20 5.14 18.76 5.75L18.76 5.75L18.76 5.75Q19.33 6.35 19.33 7.75L19.33 7.75L19.33 12.67ZM23.06 12.81L23.06 12.81L23.06 12.81Q21.95 12.81 21.39 12.22L21.39 12.22L21.39 12.22Q20.83 11.63 20.83 10.61L20.83 10.61L20.83 10.61Q20.83 9.46 21.58 8.85L21.58 8.85L21.58 8.85Q22.34 8.23 24.02 8.19L24.02 8.19L25.68 8.16L25.68 7.76L25.68 7.76Q25.68 6.86 25.30 6.47L25.30 6.47L25.30 6.47Q24.92 6.08 24.10 6.08L24.10 6.08L24.10 6.08Q23.27 6.08 22.89 6.36L22.89 6.36L22.89 6.36Q22.52 6.64 22.44 7.25L22.44 7.25L21.16 7.14L21.16 7.14Q21.47 5.14 24.12 5.14L24.12 5.14L24.12 5.14Q25.52 5.14 26.22 5.78L26.22 5.78L26.22 5.78Q26.93 6.42 26.93 7.63L26.93 7.63L26.93 10.81L26.93 10.81Q26.93 11.36 27.07 11.64L27.07 11.64L27.07 11.64Q27.21 11.92 27.62 11.92L27.62 11.92L27.62 11.92Q27.79 11.92 28.02 11.87L28.02 11.87L28.02 12.63L28.02 12.63Q27.56 12.74 27.07 12.74L27.07 12.74L27.07 12.74Q26.39 12.74 26.08 12.38L26.08 12.38L26.08 12.38Q25.76 12.02 25.72 11.26L25.72 11.26L25.68 11.26L25.68 11.26Q25.21 12.11 24.59 12.46L24.59 12.46L24.59 12.46Q23.96 12.81 23.06 12.81ZM23.34 11.89L23.34 11.89L23.34 11.89Q24.02 11.89 24.55 11.58L24.55 11.58L24.55 11.58Q25.07 11.27 25.38 10.74L25.38 10.74L25.38 10.74Q25.68 10.20 25.68 9.63L25.68 9.63L25.68 9.02L24.34 9.05L24.34 9.05Q23.47 9.06 23.02 9.23L23.02 9.23L23.02 9.23Q22.57 9.39 22.33 9.73L22.33 9.73L22.33 9.73Q22.09 10.08 22.09 10.63L22.09 10.63L22.09 10.63Q22.09 11.23 22.42 11.56L22.42 11.56L22.42 11.56Q22.74 11.89 23.34 11.89ZM34.90 12.67L33.66 12.67L33.66 7.98L33.66 7.98Q33.66 7.25 33.52 6.85L33.52 6.85L33.52 6.85Q33.37 6.45 33.06 6.27L33.06 6.27L33.06 6.27Q32.74 6.09 32.14 6.09L32.14 6.09L32.14 6.09Q31.25 6.09 30.73 6.70L30.73 6.70L30.73 6.70Q30.22 7.31 30.22 8.39L30.22 8.39L30.22 12.67L28.99 12.67L28.99 6.86L28.99 6.86Q28.99 5.56 28.95 5.28L28.95 5.28L30.11 5.28L30.11 5.28Q30.12 5.31 30.13 5.46L30.13 5.46L30.13 5.46Q30.13 5.61 30.14 5.81L30.14 5.81L30.14 5.81Q30.15 6.00 30.17 6.54L30.17 6.54L30.19 6.54L30.19 6.54Q30.61 5.78 31.17 5.46L31.17 5.46L31.17 5.46Q31.73 5.14 32.55 5.14L32.55 5.14L32.55 5.14Q33.77 5.14 34.33 5.75L34.33 5.75L34.33 5.75Q34.90 6.35 34.90 7.75L34.90 7.75L34.90 12.67ZM37.69 8.94L37.69 8.94L37.69 8.94Q37.69 10.42 38.15 11.13L38.15 11.13L38.15 11.13Q38.62 11.84 39.55 11.84L39.55 11.84L39.55 11.84Q40.21 11.84 40.65 11.48L40.65 11.48L40.65 11.48Q41.09 11.13 41.19 10.39L41.19 10.39L42.44 10.47L42.44 10.47Q42.29 11.54 41.53 12.17L41.53 12.17L41.53 12.17Q40.76 12.81 39.59 12.81L39.59 12.81L39.59 12.81Q38.04 12.81 37.22 11.83L37.22 11.83L37.22 11.83Q36.40 10.85 36.40 8.97L36.40 8.97L36.40 8.97Q36.40 7.10 37.22 6.12L37.22 6.12L37.22 6.12Q38.04 5.14 39.57 5.14L39.57 5.14L39.57 5.14Q40.71 5.14 41.46 5.73L41.46 5.73L41.46 5.73Q42.21 6.32 42.40 7.35L42.40 7.35L41.13 7.44L41.13 7.44Q41.04 6.83 40.65 6.47L40.65 6.47L40.65 6.47Q40.26 6.10 39.54 6.10L39.54 6.10L39.54 6.10Q38.56 6.10 38.12 6.75L38.12 6.75L38.12 6.75Q37.69 7.40 37.69 8.94ZM49.97 9.24L44.69 9.24L44.69 9.24Q44.69 10.51 45.22 11.20L45.22 11.20L45.22 11.20Q45.75 11.89 46.76 11.89L46.76 11.89L46.76 11.89Q47.56 11.89 48.04 11.57L48.04 11.57L48.04 11.57Q48.52 11.25 48.69 10.75L48.69 10.75L49.77 11.06L49.77 11.06Q49.11 12.81 46.76 12.81L46.76 12.81L46.76 12.81Q45.12 12.81 44.26 11.83L44.26 11.83L44.26 11.83Q43.40 10.86 43.40 8.93L43.40 8.93L43.40 8.93Q43.40 7.10 44.26 6.12L44.26 6.12L44.26 6.12Q45.12 5.14 46.71 5.14L46.71 5.14L46.71 5.14Q49.97 5.14 49.97 9.07L49.97 9.07L49.97 9.24ZM44.71 8.29L48.70 8.29L48.70 8.29Q48.60 7.12 48.10 6.59L48.10 6.59L48.10 6.59Q47.61 6.05 46.69 6.05L46.69 6.05L46.69 6.05Q45.79 6.05 45.27 6.65L45.27 6.65L45.27 6.65Q44.75 7.25 44.71 8.29L44.71 8.29ZM57.06 12.67L55.84 12.67L55.84 7.98L55.84 7.98Q55.84 6.91 55.55 6.50L55.55 6.50L55.55 6.50Q55.25 6.09 54.49 6.09L54.49 6.09L54.49 6.09Q53.70 6.09 53.25 6.69L53.25 6.69L53.25 6.69Q52.79 7.29 52.79 8.39L52.79 8.39L52.79 12.67L51.56 12.67L51.56 6.86L51.56 6.86Q51.56 5.56 51.52 5.28L51.52 5.28L52.68 5.28L52.68 5.28Q52.69 5.31 52.70 5.46L52.70 5.46L52.70 5.46Q52.71 5.61 52.72 5.81L52.72 5.81L52.72 5.81Q52.73 6.00 52.74 6.54L52.74 6.54L52.76 6.54L52.76 6.54Q53.16 5.76 53.67 5.45L53.67 5.45L53.67 5.45Q54.18 5.14 54.92 5.14L54.92 5.14L54.92 5.14Q55.76 5.14 56.25 5.48L56.25 5.48L56.25 5.48Q56.74 5.81 56.93 6.54L56.93 6.54L56.95 6.54L56.95 6.54Q57.33 5.80 57.88 5.47L57.88 5.47L57.88 5.47Q58.42 5.14 59.19 5.14L59.19 5.14L59.19 5.14Q60.31 5.14 60.82 5.75L60.82 5.75L60.82 5.75Q61.33 6.36 61.33 7.75L61.33 7.75L61.33 12.67L60.12 12.67L60.12 7.98L60.12 7.98Q60.12 6.91 59.82 6.50L59.82 6.50L59.82 6.50Q59.53 6.09 58.76 6.09L58.76 6.09L58.76 6.09Q57.96 6.09 57.51 6.69L57.51 6.69L57.51 6.69Q57.06 7.29 57.06 8.39L57.06 8.39L57.06 12.67ZM69.42 9.24L64.14 9.24L64.14 9.24Q64.14 10.51 64.67 11.20L64.67 11.20L64.67 11.20Q65.19 11.89 66.21 11.89L66.21 11.89L66.21 11.89Q67.01 11.89 67.49 11.57L67.49 11.57L67.49 11.57Q67.97 11.25 68.14 10.75L68.14 10.75L69.22 11.06L69.22 11.06Q68.56 12.81 66.21 12.81L66.21 12.81L66.21 12.81Q64.57 12.81 63.71 11.83L63.71 11.83L63.71 11.83Q62.85 10.86 62.85 8.93L62.85 8.93L62.85 8.93Q62.85 7.10 63.71 6.12L63.71 6.12L63.71 6.12Q64.57 5.14 66.16 5.14L66.16 5.14L66.16 5.14Q69.42 5.14 69.42 9.07L69.42 9.07L69.42 9.24ZM64.16 8.29L68.15 8.29L68.15 8.29Q68.04 7.12 67.55 6.59L67.55 6.59L67.55 6.59Q67.06 6.05 66.14 6.05L66.14 6.05L66.14 6.05Q65.24 6.05 64.72 6.65L64.72 6.65L64.72 6.65Q64.20 7.25 64.16 8.29L64.16 8.29ZM72.24 12.67L71.01 12.67L71.01 7L71.01 7Q71.01 6.22 70.97 5.28L70.97 5.28L72.13 5.28L72.13 5.28Q72.19 6.54 72.19 6.79L72.19 6.79L72.21 6.79L72.21 6.79Q72.51 5.84 72.89 5.49L72.89 5.49L72.89 5.49Q73.27 5.14 73.97 5.14L73.97 5.14L73.97 5.14Q74.22 5.14 74.47 5.21L74.47 5.21L74.47 6.34L74.47 6.34Q74.22 6.27 73.81 6.27L73.81 6.27L73.81 6.27Q73.05 6.27 72.65 6.93L72.65 6.93L72.65 6.93Q72.24 7.59 72.24 8.82L72.24 8.82L72.24 12.67ZM76.58 8.94L76.58 8.94L76.58 8.94Q76.58 10.42 77.05 11.13L77.05 11.13L77.05 11.13Q77.51 11.84 78.45 11.84L78.45 11.84L78.45 11.84Q79.11 11.84 79.55 11.48L79.55 11.48L79.55 11.48Q79.99 11.13 80.09 10.39L80.09 10.39L81.33 10.47L81.33 10.47Q81.19 11.54 80.42 12.17L80.42 12.17L80.42 12.17Q79.66 12.81 78.48 12.81L78.48 12.81L78.48 12.81Q76.93 12.81 76.11 11.83L76.11 11.83L76.11 11.83Q75.30 10.85 75.30 8.97L75.30 8.97L75.30 8.97Q75.30 7.10 76.12 6.12L76.12 6.12L76.12 6.12Q76.94 5.14 78.47 5.14L78.47 5.14L78.47 5.14Q79.60 5.14 80.35 5.73L80.35 5.73L80.35 5.73Q81.10 6.32 81.29 7.35L81.29 7.35L80.03 7.44L80.03 7.44Q79.93 6.83 79.54 6.47L79.54 6.47L79.54 6.47Q79.15 6.10 78.44 6.10L78.44 6.10L78.44 6.10Q77.46 6.10 77.02 6.75L77.02 6.75L77.02 6.75Q76.58 7.40 76.58 8.94ZM83.85 6.54L83.87 6.54L83.87 6.54Q84.27 5.82 84.82 5.48L84.82 5.48L84.82 5.48Q85.38 5.14 86.24 5.14L86.24 5.14L86.24 5.14Q87.44 5.14 88.01 5.74L88.01 5.74L88.01 5.74Q88.58 6.34 88.58 7.75L88.58 7.75L88.58 12.67L87.34 12.67L87.34 7.98L87.34 7.98Q87.34 7.21 87.20 6.83L87.20 6.83L87.20 6.83Q87.06 6.45 86.73 6.27L86.73 6.27L86.73 6.27Q86.40 6.09 85.82 6.09L85.82 6.09L85.82 6.09Q84.95 6.09 84.43 6.69L84.43 6.69L84.43 6.69Q83.90 7.29 83.90 8.31L83.90 8.31L83.90 12.67L82.67 12.67L82.67 2.53L83.90 2.53L83.90 5.17L83.90 5.17Q83.90 5.58 83.88 6.03L83.88 6.03L83.88 6.03Q83.86 6.47 83.85 6.54L83.85 6.54ZM92.32 12.81L92.32 12.81L92.32 12.81Q91.21 12.81 90.64 12.22L90.64 12.22L90.64 12.22Q90.08 11.63 90.08 10.61L90.08 10.61L90.08 10.61Q90.08 9.46 90.84 8.85L90.84 8.85L90.84 8.85Q91.59 8.23 93.28 8.19L93.28 8.19L94.94 8.16L94.94 7.76L94.94 7.76Q94.94 6.86 94.55 6.47L94.55 6.47L94.55 6.47Q94.17 6.08 93.35 6.08L93.35 6.08L93.35 6.08Q92.52 6.08 92.15 6.36L92.15 6.36L92.15 6.36Q91.77 6.64 91.70 7.25L91.70 7.25L90.41 7.14L90.41 7.14Q90.73 5.14 93.38 5.14L93.38 5.14L93.38 5.14Q94.77 5.14 95.48 5.78L95.48 5.78L95.48 5.78Q96.18 6.42 96.18 7.63L96.18 7.63L96.18 10.81L96.18 10.81Q96.18 11.36 96.33 11.64L96.33 11.64L96.33 11.64Q96.47 11.92 96.87 11.92L96.87 11.92L96.87 11.92Q97.05 11.92 97.28 11.87L97.28 11.87L97.28 12.63L97.28 12.63Q96.81 12.74 96.33 12.74L96.33 12.74L96.33 12.74Q95.64 12.74 95.33 12.38L95.33 12.38L95.33 12.38Q95.02 12.02 94.98 11.26L94.98 11.26L94.94 11.26L94.94 11.26Q94.47 12.11 93.84 12.46L93.84 12.46L93.84 12.46Q93.21 12.81 92.32 12.81ZM92.60 11.89L92.60 11.89L92.60 11.89Q93.28 11.89 93.80 11.58L93.80 11.58L93.80 11.58Q94.33 11.27 94.63 10.74L94.63 10.74L94.63 10.74Q94.94 10.20 94.94 9.63L94.94 9.63L94.94 9.02L93.59 9.05L93.59 9.05Q92.72 9.06 92.27 9.23L92.27 9.23L92.27 9.23Q91.83 9.39 91.59 9.73L91.59 9.73L91.59 9.73Q91.35 10.08 91.35 10.63L91.35 10.63L91.35 10.63Q91.35 11.23 91.67 11.56L91.67 11.56L91.67 11.56Q92.00 11.89 92.60 11.89ZM104.15 12.67L102.92 12.67L102.92 7.98L102.92 7.98Q102.92 7.25 102.77 6.85L102.77 6.85L102.77 6.85Q102.63 6.45 102.31 6.27L102.31 6.27L102.31 6.27Q102.00 6.09 101.39 6.09L101.39 6.09L101.39 6.09Q100.50 6.09 99.99 6.70L99.99 6.70L99.99 6.70Q99.48 7.31 99.48 8.39L99.48 8.39L99.48 12.67L98.25 12.67L98.25 6.86L98.25 6.86Q98.25 5.56 98.21 5.28L98.21 5.28L99.37 5.28L99.37 5.28Q99.37 5.31 99.38 5.46L99.38 5.46L99.38 5.46Q99.39 5.61 99.40 5.81L99.40 5.81L99.40 5.81Q99.41 6.00 99.42 6.54L99.42 6.54L99.44 6.54L99.44 6.54Q99.87 5.78 100.42 5.46L100.42 5.46L100.42 5.46Q100.98 5.14 101.81 5.14L101.81 5.14L101.81 5.14Q103.02 5.14 103.59 5.75L103.59 5.75L103.59 5.75Q104.15 6.35 104.15 7.75L104.15 7.75L104.15 12.67ZM108.85 11.71L108.85 12.62L108.85 12.62Q108.24 12.78 107.60 12.78L107.60 12.78L107.60 12.78Q106.13 12.78 106.13 11.11L106.13 11.11L106.13 6.17L105.27 6.17L105.27 5.28L106.18 5.28L106.54 3.62L107.36 3.62L107.36 5.28L108.73 5.28L108.73 6.17L107.36 6.17L107.36 10.84L107.36 10.84Q107.36 11.38 107.53 11.59L107.53 11.59L107.53 11.59Q107.71 11.81 108.14 11.81L108.14 11.81L108.14 11.81Q108.38 11.81 108.85 11.71L108.85 11.71ZM116.15 8.94L116.15 8.94L116.15 8.94Q116.15 12.81 113.43 12.81L113.43 12.81L113.43 12.81Q111.72 12.81 111.13 11.53L111.13 11.53L111.10 11.53L111.10 11.53Q111.13 11.58 111.13 12.69L111.13 12.69L111.13 15.58L109.89 15.58L109.89 6.79L109.89 6.79Q109.89 5.65 109.85 5.28L109.85 5.28L111.04 5.28L111.04 5.28Q111.05 5.30 111.06 5.47L111.06 5.47L111.06 5.47Q111.08 5.64 111.09 5.99L111.09 5.99L111.09 5.99Q111.11 6.34 111.11 6.47L111.11 6.47L111.14 6.47L111.14 6.47Q111.47 5.78 112.01 5.47L112.01 5.47L112.01 5.47Q112.55 5.15 113.43 5.15L113.43 5.15L113.43 5.15Q114.80 5.15 115.47 6.06L115.47 6.06L115.47 6.06Q116.15 6.98 116.15 8.94ZM114.86 8.97L114.86 8.97L114.86 8.97Q114.86 7.42 114.44 6.76L114.44 6.76L114.44 6.76Q114.02 6.10 113.11 6.10L113.11 6.10L113.11 6.10Q112.38 6.10 111.97 6.41L111.97 6.41L111.97 6.41Q111.56 6.71 111.34 7.37L111.34 7.37L111.34 7.37Q111.13 8.02 111.13 9.06L111.13 9.06L111.13 9.06Q111.13 10.52 111.59 11.21L111.59 11.21L111.59 11.21Q112.05 11.90 113.10 11.90L113.10 11.90L113.10 11.90Q114.02 11.90 114.44 11.23L114.44 11.23L114.44 11.23Q114.86 10.55 114.86 8.97ZM119.57 12.81L119.57 12.81L119.57 12.81Q118.45 12.81 117.89 12.22L117.89 12.22L117.89 12.22Q117.33 11.63 117.33 10.61L117.33 10.61L117.33 10.61Q117.33 9.46 118.09 8.85L118.09 8.85L118.09 8.85Q118.84 8.23 120.52 8.19L120.52 8.19L122.19 8.16L122.19 7.76L122.19 7.76Q122.19 6.86 121.80 6.47L121.80 6.47L121.80 6.47Q121.42 6.08 120.60 6.08L120.60 6.08L120.60 6.08Q119.77 6.08 119.40 6.36L119.40 6.36L119.40 6.36Q119.02 6.64 118.95 7.25L118.95 7.25L117.66 7.14L117.66 7.14Q117.97 5.14 120.63 5.14L120.63 5.14L120.63 5.14Q122.02 5.14 122.73 5.78L122.73 5.78L122.73 5.78Q123.43 6.42 123.43 7.63L123.43 7.63L123.43 10.81L123.43 10.81Q123.43 11.36 123.57 11.64L123.57 11.64L123.57 11.64Q123.72 11.92 124.12 11.92L124.12 11.92L124.12 11.92Q124.30 11.92 124.52 11.87L124.52 11.87L124.52 12.63L124.52 12.63Q124.06 12.74 123.57 12.74L123.57 12.74L123.57 12.74Q122.89 12.74 122.58 12.38L122.58 12.38L122.58 12.38Q122.27 12.02 122.23 11.26L122.23 11.26L122.19 11.26L122.19 11.26Q121.71 12.11 121.09 12.46L121.09 12.46L121.09 12.46Q120.46 12.81 119.57 12.81ZM119.85 11.89L119.85 11.89L119.85 11.89Q120.52 11.89 121.05 11.58L121.05 11.58L121.05 11.58Q121.58 11.27 121.88 10.74L121.88 10.74L121.88 10.74Q122.19 10.20 122.19 9.63L122.19 9.63L122.19 9.02L120.84 9.05L120.84 9.05Q119.97 9.06 119.52 9.23L119.52 9.23L119.52 9.23Q119.08 9.39 118.84 9.73L118.84 9.73L118.84 9.73Q118.60 10.08 118.60 10.63L118.60 10.63L118.60 10.63Q118.60 11.23 118.92 11.56L118.92 11.56L118.92 11.56Q119.25 11.89 119.85 11.89ZM125.83 15.58L125.83 15.58L125.83 15.58Q125.32 15.58 124.98 15.50L124.98 15.50L124.98 14.58L124.98 14.58Q125.24 14.62 125.56 14.62L125.56 14.62L125.56 14.62Q126.70 14.62 127.37 12.93L127.37 12.93L127.49 12.64L124.56 5.28L125.87 5.28L127.43 9.37L127.43 9.37Q127.46 9.46 127.51 9.59L127.51 9.59L127.51 9.59Q127.56 9.73 127.82 10.49L127.82 10.49L127.82 10.49Q128.08 11.25 128.10 11.33L128.10 11.33L128.58 9.99L130.20 5.28L131.50 5.28L128.65 12.67L128.65 12.67Q128.19 13.86 127.80 14.43L127.80 14.43L127.80 14.43Q127.40 15.01 126.92 15.30L126.92 15.30L126.92 15.30Q126.44 15.58 125.83 15.58Z"></path></g><!----><!----></svg>